<svg xmlns="http://www.w3.org/2000/svg" version="1.1" xmlns:xlink="http://www.w3.org/1999/xlink" width="57" height="48"><svg width="57" height="48" fill="none" xmlns="http://www.w3.org/2000/svg"><path d="M27.565 27.519v-6l2.5 3.75 2.5-3.75v6M23.565 18.519v6h4" stroke="#000"></path><path d="M14.608 16.41l8.484 15.054M14.608 16.41l-2.34-9.2.292-4.182 2.048-2.51c6.386.492 9.021 2.308 13.165 8.085M14.608 16.41l3.51-.837 3.218-.279 6.73-.278 6.435.278 7.022.837 3.51.557 4.389 1.394 3.51 1.952 1.463 1.394 1.17 1.672-.585 1.952-1.755 1.951-3.803 1.673-3.511 1.115-4.681 1.116M14.608 16.41h-1.463l-2.048.557-4.973 1.115-4.096 2.51L.565 23.1l1.463 3.067 3.803 2.23 8.777 2.51m26.622 0l-3.51.557-5.267.279-9.361-.279m18.138-.557L35.672 18.64l-3.219-5.018-4.68-5.019M41.23 30.906l2.34 8.085v4.46l-2.633 3.068-3.51-.837-3.803-2.23-5.559-5.297-4.973-6.691m-8.484-.557l4.388.557h4.096m-8.484-.557l5.558-11.43 7.607-10.874" stroke="#D0C010"></path><path d="M28.065 38.104l5.454-7.012 4.305-7.573 2.584-5.89 2.296-5.89.861-6.172-.861-3.365L41.269.799l-2.01-.28-2.009.56-3.731 2.244-5.454 5.33-7.75 10.939-5.454 11.5-2.009 7.573-.287 3.646 1.722 4.208" stroke="#D0C010"></path><path d="M13.565 46.519l4.667-.3 3.5-2.7 3.208-2.7 2.625-3.3" stroke="#D0C010"></path></svg><style>@media (prefers-color-scheme: light) { :root { filter: none; } }
@media (prefers-color-scheme: dark) { :root { filter: none; } }
</style></svg>