<svg width="47" height="13" fill="none" xmlns="http://www.w3.org/2000/svg"><path stroke="#000" d="M17.5 3L17.5 10"/><path d="M2.749 3.76v2.72h.19c.293 0 .533-.044.718-.132a1.11 1.11 0 00.469-.445c.13-.208.215-.49.254-.844h.17v3.325h-.17c-.062-.628-.231-1.042-.508-1.24a1.53 1.53 0 00-.933-.303h-.19v2.026c0 .339.018.55.054.635.039.085.112.16.22.225a.91.91 0 00.444.092h.22V10H.225v-.18h.22a.915.915 0 00.463-.103.445.445 0 00.196-.235c.035-.078.053-.283.053-.615V4.512c0-.339-.018-.55-.053-.635a.476.476 0 00-.22-.22.845.845 0 00-.44-.097h-.22v-.181h5.587v1.9h-.2c-.046-.447-.163-.777-.352-.992-.186-.215-.456-.366-.81-.454-.196-.049-.557-.073-1.085-.073H2.75zm6.02 3.222v1.856c0 .358.022.584.064.679a.499.499 0 00.234.22c.111.055.318.082.62.082V10H6.3v-.18c.306 0 .513-.028.62-.084a.495.495 0 00.23-.224c.045-.091.068-.316.068-.674V4.54c0-.358-.023-.583-.069-.674a.467.467 0 00-.229-.224c-.11-.056-.317-.083-.62-.083v-.181h3.076c.8 0 1.387.055 1.758.166.37.11.674.316.908.615.234.296.352.645.352 1.045 0 .488-.176.892-.528 1.211-.224.202-.539.353-.942.454l1.592 2.241c.208.29.356.47.444.542.133.101.288.157.464.166V10h-2.085L9.204 6.982H8.77zm0-3.247v2.9h.279c.452 0 .79-.04 1.015-.121.225-.085.4-.235.528-.45.13-.218.195-.5.195-.85 0-.504-.119-.876-.356-1.117-.235-.241-.614-.362-1.138-.362H8.77zm14.795.025v2.695h.132c.42 0 .725-.132.913-.395.19-.264.31-.653.362-1.167h.185v3.466h-.185c-.04-.377-.122-.686-.25-.927-.123-.241-.268-.402-.434-.484-.166-.084-.407-.127-.723-.127v1.866c0 .364.015.587.044.668a.415.415 0 00.176.2c.085.053.222.079.41.079h.396c.618 0 1.113-.143 1.484-.43.375-.286.643-.723.806-1.308h.18L26.764 10H21.04v-.18h.22a.915.915 0 00.464-.103.444.444 0 00.195-.235c.036-.078.054-.283.054-.615V4.512c0-.3-.008-.484-.025-.552a.467.467 0 00-.18-.264c-.124-.09-.293-.136-.508-.136h-.22v-.181h5.542v1.958h-.186c-.094-.479-.227-.822-.4-1.03-.17-.209-.41-.362-.723-.46-.182-.058-.524-.087-1.025-.087h-.684zM30 3.379l3.267 4.106V4.64c0-.397-.057-.666-.171-.806-.156-.189-.419-.28-.786-.273v-.181h2.187v.18c-.28.036-.469.084-.566.142a.562.562 0 00-.225.278c-.052.127-.078.347-.078.66v5.512h-.166L28.984 4.64v4.209c0 .38.087.638.26.771.175.134.375.2.6.2H30V10h-2.349v-.18c.365-.004.619-.079.762-.225.143-.147.215-.396.215-.747V4.175l-.142-.176c-.14-.176-.263-.291-.37-.347-.108-.055-.263-.086-.465-.092v-.181H30z" fill="#000"/></svg>